<mxfile host="Electron" modified="2024-01-15T12:35:54.971Z" agent="Mozilla/5.0 (X11; Linux x86_64) AppleWebKit/537.36 (KHTML, like Gecko) draw.io/21.6.1 Chrome/112.0.5615.204 Electron/24.6.1 Safari/537.36" etag="0YNpflM7AXrNcYYkRl7M" version="21.6.1" type="device">
  <diagram name="Page-1" id="NQa1cD9yoGFF-2M4kGZS">
    <mxGraphModel dx="908" dy="671" grid="1" gridSize="10" guides="1" tooltips="1" connect="1" arrows="1" fold="1" page="1" pageScale="1" pageWidth="850" pageHeight="1100" math="0" shadow="0">
      <root>
        <mxCell id="0" />
        <mxCell id="1" parent="0" />
        <mxCell id="9zeXcT7h1Ww5CdjPzbvc-38" style="edgeStyle=orthogonalEdgeStyle;rounded=0;orthogonalLoop=1;jettySize=auto;html=1;exitX=0.5;exitY=0;exitDx=0;exitDy=0;entryX=0.5;entryY=1;entryDx=0;entryDy=0;" parent="1" source="9zeXcT7h1Ww5CdjPzbvc-1" target="9zeXcT7h1Ww5CdjPzbvc-37" edge="1">
          <mxGeometry relative="1" as="geometry" />
        </mxCell>
        <mxCell id="9zeXcT7h1Ww5CdjPzbvc-53" style="edgeStyle=orthogonalEdgeStyle;rounded=0;orthogonalLoop=1;jettySize=auto;html=1;exitX=0.5;exitY=0;exitDx=0;exitDy=0;entryX=0.5;entryY=1;entryDx=0;entryDy=0;" parent="1" source="9zeXcT7h1Ww5CdjPzbvc-1" target="9zeXcT7h1Ww5CdjPzbvc-52" edge="1">
          <mxGeometry relative="1" as="geometry">
            <Array as="points">
              <mxPoint x="430" y="690" />
              <mxPoint x="650" y="690" />
            </Array>
          </mxGeometry>
        </mxCell>
        <mxCell id="ZVySOKYS1OYlLSNdd-Se-19" style="edgeStyle=orthogonalEdgeStyle;rounded=0;orthogonalLoop=1;jettySize=auto;html=1;entryX=0.5;entryY=1;entryDx=0;entryDy=0;" edge="1" parent="1" source="9zeXcT7h1Ww5CdjPzbvc-1" target="ZVySOKYS1OYlLSNdd-Se-18">
          <mxGeometry relative="1" as="geometry">
            <Array as="points">
              <mxPoint x="430" y="690" />
              <mxPoint x="220" y="690" />
            </Array>
          </mxGeometry>
        </mxCell>
        <mxCell id="9zeXcT7h1Ww5CdjPzbvc-1" value="Encoder" style="shape=trapezoid;perimeter=trapezoidPerimeter;whiteSpace=wrap;html=1;fixedSize=1;" parent="1" vertex="1">
          <mxGeometry x="320" y="720" width="220" height="50" as="geometry" />
        </mxCell>
        <mxCell id="9zeXcT7h1Ww5CdjPzbvc-16" value="" style="group" parent="1" vertex="1" connectable="0">
          <mxGeometry x="369" y="1000" width="120" height="60" as="geometry" />
        </mxCell>
        <mxCell id="9zeXcT7h1Ww5CdjPzbvc-3" value="V (N, 32, 1)" style="rounded=0;whiteSpace=wrap;html=1;fillColor=#dae8fc;strokeColor=#6c8ebf;" parent="9zeXcT7h1Ww5CdjPzbvc-16" vertex="1">
          <mxGeometry y="40" width="120" height="20" as="geometry" />
        </mxCell>
        <mxCell id="9zeXcT7h1Ww5CdjPzbvc-7" style="edgeStyle=orthogonalEdgeStyle;rounded=0;orthogonalLoop=1;jettySize=auto;html=1;exitX=0.5;exitY=1;exitDx=0;exitDy=0;" parent="9zeXcT7h1Ww5CdjPzbvc-16" source="9zeXcT7h1Ww5CdjPzbvc-3" target="9zeXcT7h1Ww5CdjPzbvc-3" edge="1">
          <mxGeometry relative="1" as="geometry" />
        </mxCell>
        <mxCell id="9zeXcT7h1Ww5CdjPzbvc-26" style="edgeStyle=orthogonalEdgeStyle;rounded=0;orthogonalLoop=1;jettySize=auto;html=1;exitX=0.5;exitY=0;exitDx=0;exitDy=0;" parent="9zeXcT7h1Ww5CdjPzbvc-16" source="9zeXcT7h1Ww5CdjPzbvc-8" edge="1">
          <mxGeometry relative="1" as="geometry">
            <mxPoint x="59.6521739130435" y="-50" as="targetPoint" />
          </mxGeometry>
        </mxCell>
        <mxCell id="9zeXcT7h1Ww5CdjPzbvc-8" value="Dropout" style="rounded=1;whiteSpace=wrap;html=1;" parent="9zeXcT7h1Ww5CdjPzbvc-16" vertex="1">
          <mxGeometry x="25" width="70" height="20" as="geometry" />
        </mxCell>
        <mxCell id="9zeXcT7h1Ww5CdjPzbvc-13" value="" style="endArrow=classic;html=1;rounded=0;entryX=0.5;entryY=1;entryDx=0;entryDy=0;" parent="9zeXcT7h1Ww5CdjPzbvc-16" edge="1">
          <mxGeometry width="50" height="50" relative="1" as="geometry">
            <mxPoint x="61" y="40" as="sourcePoint" />
            <mxPoint x="61" y="20" as="targetPoint" />
          </mxGeometry>
        </mxCell>
        <mxCell id="9zeXcT7h1Ww5CdjPzbvc-17" value="" style="group" parent="1" vertex="1" connectable="0">
          <mxGeometry x="525" y="1000" width="120" height="60" as="geometry" />
        </mxCell>
        <mxCell id="9zeXcT7h1Ww5CdjPzbvc-4" value="O (N, 32, 1)" style="rounded=0;whiteSpace=wrap;html=1;fillColor=#f5f5f5;fontColor=#333333;strokeColor=#666666;" parent="9zeXcT7h1Ww5CdjPzbvc-17" vertex="1">
          <mxGeometry y="40" width="120" height="20" as="geometry" />
        </mxCell>
        <mxCell id="9zeXcT7h1Ww5CdjPzbvc-27" style="edgeStyle=orthogonalEdgeStyle;rounded=0;orthogonalLoop=1;jettySize=auto;html=1;" parent="9zeXcT7h1Ww5CdjPzbvc-17" source="9zeXcT7h1Ww5CdjPzbvc-9" edge="1">
          <mxGeometry relative="1" as="geometry">
            <mxPoint x="-95" y="-50" as="targetPoint" />
            <Array as="points">
              <mxPoint x="60" y="-20" />
              <mxPoint x="-95" y="-20" />
            </Array>
          </mxGeometry>
        </mxCell>
        <mxCell id="9zeXcT7h1Ww5CdjPzbvc-9" value="Dropout" style="rounded=1;whiteSpace=wrap;html=1;" parent="9zeXcT7h1Ww5CdjPzbvc-17" vertex="1">
          <mxGeometry x="25" width="70" height="20" as="geometry" />
        </mxCell>
        <mxCell id="9zeXcT7h1Ww5CdjPzbvc-14" value="" style="endArrow=classic;html=1;rounded=0;entryX=0.5;entryY=1;entryDx=0;entryDy=0;" parent="9zeXcT7h1Ww5CdjPzbvc-17" edge="1">
          <mxGeometry width="50" height="50" relative="1" as="geometry">
            <mxPoint x="59.85999999999996" y="40" as="sourcePoint" />
            <mxPoint x="59.85999999999996" y="20" as="targetPoint" />
          </mxGeometry>
        </mxCell>
        <mxCell id="9zeXcT7h1Ww5CdjPzbvc-32" style="edgeStyle=orthogonalEdgeStyle;rounded=0;orthogonalLoop=1;jettySize=auto;html=1;" parent="1" source="9zeXcT7h1Ww5CdjPzbvc-23" edge="1">
          <mxGeometry relative="1" as="geometry">
            <mxPoint x="429" y="900" as="targetPoint" />
          </mxGeometry>
        </mxCell>
        <mxCell id="9zeXcT7h1Ww5CdjPzbvc-23" value="concat" style="rounded=1;whiteSpace=wrap;html=1;" parent="1" vertex="1">
          <mxGeometry x="369" y="920" width="120" height="30" as="geometry" />
        </mxCell>
        <mxCell id="9zeXcT7h1Ww5CdjPzbvc-25" style="edgeStyle=orthogonalEdgeStyle;rounded=0;orthogonalLoop=1;jettySize=auto;html=1;entryX=0.5;entryY=1;entryDx=0;entryDy=0;exitX=0.5;exitY=0;exitDx=0;exitDy=0;" parent="1" source="9zeXcT7h1Ww5CdjPzbvc-2" target="9zeXcT7h1Ww5CdjPzbvc-23" edge="1">
          <mxGeometry relative="1" as="geometry">
            <Array as="points">
              <mxPoint x="270" y="980" />
              <mxPoint x="429" y="980" />
            </Array>
            <mxPoint x="270" y="1020" as="sourcePoint" />
          </mxGeometry>
        </mxCell>
        <mxCell id="9zeXcT7h1Ww5CdjPzbvc-31" value="" style="group" parent="1" vertex="1" connectable="0">
          <mxGeometry x="370" y="840" width="120" height="60" as="geometry" />
        </mxCell>
        <mxCell id="9zeXcT7h1Ww5CdjPzbvc-75" value="" style="group" parent="9zeXcT7h1Ww5CdjPzbvc-31" vertex="1" connectable="0">
          <mxGeometry width="120" height="60" as="geometry" />
        </mxCell>
        <mxCell id="9zeXcT7h1Ww5CdjPzbvc-28" value="H (N, 32, 1)" style="rounded=0;whiteSpace=wrap;html=1;fillColor=#d5e8d4;strokeColor=#82b366;" parent="9zeXcT7h1Ww5CdjPzbvc-75" vertex="1">
          <mxGeometry y="40" width="120" height="20" as="geometry" />
        </mxCell>
        <mxCell id="9zeXcT7h1Ww5CdjPzbvc-29" value="V (N, 32, 1)" style="rounded=0;whiteSpace=wrap;html=1;fillColor=#dae8fc;strokeColor=#6c8ebf;" parent="9zeXcT7h1Ww5CdjPzbvc-75" vertex="1">
          <mxGeometry y="20" width="120" height="20" as="geometry" />
        </mxCell>
        <mxCell id="9zeXcT7h1Ww5CdjPzbvc-30" value="O (N, 32, 1)" style="rounded=0;whiteSpace=wrap;html=1;fillColor=#f5f5f5;fontColor=#333333;strokeColor=#666666;" parent="9zeXcT7h1Ww5CdjPzbvc-75" vertex="1">
          <mxGeometry width="120" height="20" as="geometry" />
        </mxCell>
        <mxCell id="9zeXcT7h1Ww5CdjPzbvc-36" style="edgeStyle=orthogonalEdgeStyle;rounded=0;orthogonalLoop=1;jettySize=auto;html=1;entryX=0.5;entryY=1;entryDx=0;entryDy=0;" parent="1" source="9zeXcT7h1Ww5CdjPzbvc-33" target="9zeXcT7h1Ww5CdjPzbvc-1" edge="1">
          <mxGeometry relative="1" as="geometry" />
        </mxCell>
        <mxCell id="9zeXcT7h1Ww5CdjPzbvc-33" value="Input Layer (FCN)" style="rounded=1;whiteSpace=wrap;html=1;" parent="1" vertex="1">
          <mxGeometry x="370" y="790" width="120" height="30" as="geometry" />
        </mxCell>
        <mxCell id="9zeXcT7h1Ww5CdjPzbvc-35" style="edgeStyle=orthogonalEdgeStyle;rounded=0;orthogonalLoop=1;jettySize=auto;html=1;entryX=0.5;entryY=1;entryDx=0;entryDy=0;" parent="1" source="9zeXcT7h1Ww5CdjPzbvc-30" target="9zeXcT7h1Ww5CdjPzbvc-33" edge="1">
          <mxGeometry relative="1" as="geometry" />
        </mxCell>
        <mxCell id="9zeXcT7h1Ww5CdjPzbvc-42" style="edgeStyle=orthogonalEdgeStyle;rounded=0;orthogonalLoop=1;jettySize=auto;html=1;entryX=0.5;entryY=1;entryDx=0;entryDy=0;" parent="1" source="9zeXcT7h1Ww5CdjPzbvc-37" target="9zeXcT7h1Ww5CdjPzbvc-41" edge="1">
          <mxGeometry relative="1" as="geometry" />
        </mxCell>
        <mxCell id="9zeXcT7h1Ww5CdjPzbvc-44" style="edgeStyle=orthogonalEdgeStyle;rounded=0;orthogonalLoop=1;jettySize=auto;html=1;entryX=0.5;entryY=1;entryDx=0;entryDy=0;" parent="1" source="9zeXcT7h1Ww5CdjPzbvc-37" target="9zeXcT7h1Ww5CdjPzbvc-43" edge="1">
          <mxGeometry relative="1" as="geometry" />
        </mxCell>
        <mxCell id="ZVySOKYS1OYlLSNdd-Se-39" style="edgeStyle=orthogonalEdgeStyle;shape=connector;rounded=0;orthogonalLoop=1;jettySize=auto;html=1;entryX=0.5;entryY=1;entryDx=0;entryDy=0;labelBackgroundColor=default;strokeColor=#FF3399;fontFamily=Helvetica;fontSize=11;fontColor=default;endArrow=classic;" edge="1" parent="1" source="9zeXcT7h1Ww5CdjPzbvc-37" target="ZVySOKYS1OYlLSNdd-Se-38">
          <mxGeometry relative="1" as="geometry">
            <Array as="points">
              <mxPoint x="430" y="630" />
            </Array>
          </mxGeometry>
        </mxCell>
        <mxCell id="9zeXcT7h1Ww5CdjPzbvc-37" value="Flatten and FCN" style="rounded=1;whiteSpace=wrap;html=1;" parent="1" vertex="1">
          <mxGeometry x="370" y="640" width="120" height="30" as="geometry" />
        </mxCell>
        <mxCell id="9zeXcT7h1Ww5CdjPzbvc-46" style="edgeStyle=orthogonalEdgeStyle;rounded=0;orthogonalLoop=1;jettySize=auto;html=1;entryX=0.5;entryY=1;entryDx=0;entryDy=0;" parent="1" source="9zeXcT7h1Ww5CdjPzbvc-41" target="9zeXcT7h1Ww5CdjPzbvc-45" edge="1">
          <mxGeometry relative="1" as="geometry">
            <Array as="points">
              <mxPoint x="360" y="570" />
              <mxPoint x="429" y="570" />
            </Array>
          </mxGeometry>
        </mxCell>
        <mxCell id="9zeXcT7h1Ww5CdjPzbvc-41" value="Mean (N, Z_dim)" style="rounded=0;whiteSpace=wrap;html=1;fillColor=#fff2cc;strokeColor=#d6b656;" parent="1" vertex="1">
          <mxGeometry x="300" y="584" width="120" height="20" as="geometry" />
        </mxCell>
        <mxCell id="9zeXcT7h1Ww5CdjPzbvc-47" style="edgeStyle=orthogonalEdgeStyle;rounded=0;orthogonalLoop=1;jettySize=auto;html=1;entryX=0.5;entryY=1;entryDx=0;entryDy=0;" parent="1" source="9zeXcT7h1Ww5CdjPzbvc-43" target="9zeXcT7h1Ww5CdjPzbvc-45" edge="1">
          <mxGeometry relative="1" as="geometry">
            <Array as="points">
              <mxPoint x="500" y="570" />
              <mxPoint x="429" y="570" />
            </Array>
          </mxGeometry>
        </mxCell>
        <mxCell id="9zeXcT7h1Ww5CdjPzbvc-43" value="LogVar (N, Z_dim)" style="rounded=0;whiteSpace=wrap;html=1;fillColor=#e1d5e7;strokeColor=#9673a6;" parent="1" vertex="1">
          <mxGeometry x="440" y="584" width="120" height="20" as="geometry" />
        </mxCell>
        <mxCell id="9zeXcT7h1Ww5CdjPzbvc-49" style="edgeStyle=orthogonalEdgeStyle;rounded=0;orthogonalLoop=1;jettySize=auto;html=1;exitX=0.5;exitY=0;exitDx=0;exitDy=0;entryX=0.5;entryY=1;entryDx=0;entryDy=0;" parent="1" source="9zeXcT7h1Ww5CdjPzbvc-45" target="9zeXcT7h1Ww5CdjPzbvc-48" edge="1">
          <mxGeometry relative="1" as="geometry" />
        </mxCell>
        <mxCell id="9zeXcT7h1Ww5CdjPzbvc-45" value="Reparametrize" style="rounded=1;whiteSpace=wrap;html=1;" parent="1" vertex="1">
          <mxGeometry x="369" y="520" width="120" height="30" as="geometry" />
        </mxCell>
        <mxCell id="9zeXcT7h1Ww5CdjPzbvc-51" style="edgeStyle=orthogonalEdgeStyle;rounded=0;orthogonalLoop=1;jettySize=auto;html=1;" parent="1" source="9zeXcT7h1Ww5CdjPzbvc-48" target="9zeXcT7h1Ww5CdjPzbvc-50" edge="1">
          <mxGeometry relative="1" as="geometry" />
        </mxCell>
        <mxCell id="9zeXcT7h1Ww5CdjPzbvc-48" value="Z" style="rounded=0;whiteSpace=wrap;html=1;fillColor=#60a917;strokeColor=#2D7600;fontColor=#ffffff;" parent="1" vertex="1">
          <mxGeometry x="369" y="480" width="120" height="30" as="geometry" />
        </mxCell>
        <mxCell id="9zeXcT7h1Ww5CdjPzbvc-73" style="edgeStyle=orthogonalEdgeStyle;rounded=0;orthogonalLoop=1;jettySize=auto;html=1;exitX=0.5;exitY=0;exitDx=0;exitDy=0;entryX=0.5;entryY=0;entryDx=0;entryDy=0;" parent="1" source="9zeXcT7h1Ww5CdjPzbvc-50" target="9zeXcT7h1Ww5CdjPzbvc-71" edge="1">
          <mxGeometry relative="1" as="geometry" />
        </mxCell>
        <mxCell id="9zeXcT7h1Ww5CdjPzbvc-50" value="FCN and Reshape" style="rounded=1;whiteSpace=wrap;html=1;" parent="1" vertex="1">
          <mxGeometry x="369" y="420" width="120" height="30" as="geometry" />
        </mxCell>
        <mxCell id="9zeXcT7h1Ww5CdjPzbvc-60" style="edgeStyle=orthogonalEdgeStyle;rounded=0;orthogonalLoop=1;jettySize=auto;html=1;" parent="1" source="9zeXcT7h1Ww5CdjPzbvc-52" target="9zeXcT7h1Ww5CdjPzbvc-55" edge="1">
          <mxGeometry relative="1" as="geometry">
            <Array as="points">
              <mxPoint x="650" y="570" />
              <mxPoint x="560" y="570" />
            </Array>
          </mxGeometry>
        </mxCell>
        <mxCell id="ZVySOKYS1OYlLSNdd-Se-30" style="edgeStyle=orthogonalEdgeStyle;shape=connector;rounded=0;orthogonalLoop=1;jettySize=auto;html=1;entryX=0.5;entryY=1;entryDx=0;entryDy=0;labelBackgroundColor=default;strokeColor=#FF3399;fontFamily=Helvetica;fontSize=11;fontColor=default;endArrow=classic;" edge="1" parent="1" source="9zeXcT7h1Ww5CdjPzbvc-52" target="ZVySOKYS1OYlLSNdd-Se-15">
          <mxGeometry relative="1" as="geometry">
            <Array as="points">
              <mxPoint x="650" y="630" />
              <mxPoint x="760" y="630" />
            </Array>
          </mxGeometry>
        </mxCell>
        <mxCell id="9zeXcT7h1Ww5CdjPzbvc-52" value="Flatten and FCN" style="rounded=1;whiteSpace=wrap;html=1;" parent="1" vertex="1">
          <mxGeometry x="590" y="640" width="120" height="30" as="geometry" />
        </mxCell>
        <mxCell id="ZVySOKYS1OYlLSNdd-Se-12" style="edgeStyle=orthogonalEdgeStyle;rounded=0;orthogonalLoop=1;jettySize=auto;html=1;entryX=0.5;entryY=1;entryDx=0;entryDy=0;" edge="1" parent="1" source="9zeXcT7h1Ww5CdjPzbvc-55" target="9zeXcT7h1Ww5CdjPzbvc-59">
          <mxGeometry relative="1" as="geometry" />
        </mxCell>
        <mxCell id="9zeXcT7h1Ww5CdjPzbvc-55" value="Softmax" style="rounded=1;whiteSpace=wrap;html=1;" parent="1" vertex="1">
          <mxGeometry x="520" y="530" width="80" height="20" as="geometry" />
        </mxCell>
        <mxCell id="9zeXcT7h1Ww5CdjPzbvc-69" value="Comp&lt;br style=&quot;font-size: 10px;&quot;&gt;lexity" style="rounded=0;whiteSpace=wrap;html=1;fontSize=10;fillColor=#d80073;fontColor=#ffffff;strokeColor=#A50040;" parent="1" vertex="1">
          <mxGeometry x="339" y="480" width="30" height="30" as="geometry" />
        </mxCell>
        <mxCell id="9zeXcT7h1Ww5CdjPzbvc-74" value="" style="group" parent="1" vertex="1" connectable="0">
          <mxGeometry x="320" y="350" width="220" height="50" as="geometry" />
        </mxCell>
        <mxCell id="9zeXcT7h1Ww5CdjPzbvc-71" value="" style="shape=trapezoid;perimeter=trapezoidPerimeter;whiteSpace=wrap;html=1;fixedSize=1;rotation=-180;" parent="9zeXcT7h1Ww5CdjPzbvc-74" vertex="1">
          <mxGeometry width="220" height="50" as="geometry" />
        </mxCell>
        <mxCell id="9zeXcT7h1Ww5CdjPzbvc-72" value="Decoder" style="text;html=1;strokeColor=none;fillColor=none;align=center;verticalAlign=middle;whiteSpace=wrap;rounded=0;" parent="9zeXcT7h1Ww5CdjPzbvc-74" vertex="1">
          <mxGeometry x="80" y="10" width="60" height="30" as="geometry" />
        </mxCell>
        <mxCell id="9zeXcT7h1Ww5CdjPzbvc-86" value="" style="group" parent="1" vertex="1" connectable="0">
          <mxGeometry x="230" y="300" width="400" height="20" as="geometry" />
        </mxCell>
        <mxCell id="9zeXcT7h1Ww5CdjPzbvc-83" value="H_ (N, 32, 9)" style="rounded=0;whiteSpace=wrap;html=1;fillColor=#d5e8d4;strokeColor=#82b366;container=0;" parent="9zeXcT7h1Ww5CdjPzbvc-86" vertex="1">
          <mxGeometry width="120" height="20" as="geometry" />
        </mxCell>
        <mxCell id="9zeXcT7h1Ww5CdjPzbvc-85" value="O_ (N, 32, 9)" style="rounded=0;whiteSpace=wrap;html=1;fillColor=#f5f5f5;fontColor=#333333;strokeColor=#666666;container=0;" parent="9zeXcT7h1Ww5CdjPzbvc-86" vertex="1">
          <mxGeometry x="280" width="120" height="20" as="geometry" />
        </mxCell>
        <mxCell id="9zeXcT7h1Ww5CdjPzbvc-84" value="V_ (N, 32, 9)" style="rounded=0;whiteSpace=wrap;html=1;fillColor=#dae8fc;strokeColor=#6c8ebf;container=0;" parent="9zeXcT7h1Ww5CdjPzbvc-86" vertex="1">
          <mxGeometry x="140" width="120" height="20" as="geometry" />
        </mxCell>
        <mxCell id="9zeXcT7h1Ww5CdjPzbvc-88" style="edgeStyle=orthogonalEdgeStyle;rounded=0;orthogonalLoop=1;jettySize=auto;html=1;entryX=0.5;entryY=1;entryDx=0;entryDy=0;" parent="1" source="9zeXcT7h1Ww5CdjPzbvc-71" target="9zeXcT7h1Ww5CdjPzbvc-84" edge="1">
          <mxGeometry relative="1" as="geometry" />
        </mxCell>
        <mxCell id="9zeXcT7h1Ww5CdjPzbvc-89" style="edgeStyle=orthogonalEdgeStyle;rounded=0;orthogonalLoop=1;jettySize=auto;html=1;entryX=0.5;entryY=1;entryDx=0;entryDy=0;" parent="1" source="9zeXcT7h1Ww5CdjPzbvc-71" target="9zeXcT7h1Ww5CdjPzbvc-85" edge="1">
          <mxGeometry relative="1" as="geometry">
            <Array as="points">
              <mxPoint x="430" y="340" />
              <mxPoint x="570" y="340" />
            </Array>
          </mxGeometry>
        </mxCell>
        <mxCell id="9zeXcT7h1Ww5CdjPzbvc-90" style="edgeStyle=orthogonalEdgeStyle;rounded=0;orthogonalLoop=1;jettySize=auto;html=1;entryX=0.5;entryY=1;entryDx=0;entryDy=0;" parent="1" source="9zeXcT7h1Ww5CdjPzbvc-71" target="9zeXcT7h1Ww5CdjPzbvc-83" edge="1">
          <mxGeometry relative="1" as="geometry">
            <Array as="points">
              <mxPoint x="430" y="340" />
              <mxPoint x="290" y="340" />
            </Array>
          </mxGeometry>
        </mxCell>
        <mxCell id="9zeXcT7h1Ww5CdjPzbvc-2" value="H (N, 32, 1)" style="rounded=0;whiteSpace=wrap;html=1;fillColor=#d5e8d4;strokeColor=#82b366;" parent="1" vertex="1">
          <mxGeometry x="210" y="1040" width="120" height="20" as="geometry" />
        </mxCell>
        <mxCell id="ZVySOKYS1OYlLSNdd-Se-2" value="sigmoid" style="rounded=1;whiteSpace=wrap;html=1;" vertex="1" parent="1">
          <mxGeometry x="250" y="210" width="80" height="30" as="geometry" />
        </mxCell>
        <mxCell id="ZVySOKYS1OYlLSNdd-Se-3" style="edgeStyle=orthogonalEdgeStyle;rounded=0;orthogonalLoop=1;jettySize=auto;html=1;entryX=0.5;entryY=1;entryDx=0;entryDy=0;" edge="1" parent="1" source="9zeXcT7h1Ww5CdjPzbvc-83" target="ZVySOKYS1OYlLSNdd-Se-2">
          <mxGeometry relative="1" as="geometry" />
        </mxCell>
        <mxCell id="ZVySOKYS1OYlLSNdd-Se-4" value="sigmoid" style="rounded=1;whiteSpace=wrap;html=1;" vertex="1" parent="1">
          <mxGeometry x="390" y="210" width="80" height="30" as="geometry" />
        </mxCell>
        <mxCell id="ZVySOKYS1OYlLSNdd-Se-5" value="sigmoid" style="rounded=1;whiteSpace=wrap;html=1;" vertex="1" parent="1">
          <mxGeometry x="530" y="210" width="80" height="30" as="geometry" />
        </mxCell>
        <mxCell id="ZVySOKYS1OYlLSNdd-Se-6" style="edgeStyle=orthogonalEdgeStyle;rounded=0;orthogonalLoop=1;jettySize=auto;html=1;" edge="1" parent="1" source="9zeXcT7h1Ww5CdjPzbvc-84" target="ZVySOKYS1OYlLSNdd-Se-4">
          <mxGeometry relative="1" as="geometry" />
        </mxCell>
        <mxCell id="ZVySOKYS1OYlLSNdd-Se-7" style="edgeStyle=orthogonalEdgeStyle;rounded=0;orthogonalLoop=1;jettySize=auto;html=1;entryX=0.5;entryY=1;entryDx=0;entryDy=0;" edge="1" parent="1" source="9zeXcT7h1Ww5CdjPzbvc-85" target="ZVySOKYS1OYlLSNdd-Se-5">
          <mxGeometry relative="1" as="geometry" />
        </mxCell>
        <mxCell id="ZVySOKYS1OYlLSNdd-Se-10" value="" style="group" vertex="1" connectable="0" parent="1">
          <mxGeometry x="485" y="480" width="120" height="30" as="geometry" />
        </mxCell>
        <mxCell id="9zeXcT7h1Ww5CdjPzbvc-56" value="Rock" style="rounded=0;whiteSpace=wrap;html=1;fillColor=#6a00ff;fontColor=#ffffff;strokeColor=#3700CC;" parent="ZVySOKYS1OYlLSNdd-Se-10" vertex="1">
          <mxGeometry width="30" height="30" as="geometry" />
        </mxCell>
        <mxCell id="9zeXcT7h1Ww5CdjPzbvc-57" value="Funk" style="rounded=0;whiteSpace=wrap;html=1;fillColor=#6a00ff;fontColor=#ffffff;strokeColor=#3700CC;" parent="ZVySOKYS1OYlLSNdd-Se-10" vertex="1">
          <mxGeometry x="30" width="30" height="30" as="geometry" />
        </mxCell>
        <mxCell id="9zeXcT7h1Ww5CdjPzbvc-58" value="..." style="rounded=0;whiteSpace=wrap;html=1;fillColor=#6a00ff;fontColor=#ffffff;strokeColor=#3700CC;" parent="ZVySOKYS1OYlLSNdd-Se-10" vertex="1">
          <mxGeometry x="90" width="30" height="30" as="geometry" />
        </mxCell>
        <mxCell id="9zeXcT7h1Ww5CdjPzbvc-59" value="" style="rounded=0;whiteSpace=wrap;html=1;fillColor=#6a00ff;fontColor=#ffffff;strokeColor=#3700CC;" parent="ZVySOKYS1OYlLSNdd-Se-10" vertex="1">
          <mxGeometry x="60" width="30" height="30" as="geometry" />
        </mxCell>
        <mxCell id="ZVySOKYS1OYlLSNdd-Se-15" value="Softmax" style="rounded=1;whiteSpace=wrap;html=1;fillColor=#f8cecc;strokeColor=#b85450;" vertex="1" parent="1">
          <mxGeometry x="720" y="560" width="80" height="20" as="geometry" />
        </mxCell>
        <mxCell id="ZVySOKYS1OYlLSNdd-Se-25" style="edgeStyle=orthogonalEdgeStyle;rounded=0;orthogonalLoop=1;jettySize=auto;html=1;entryX=0.5;entryY=1;entryDx=0;entryDy=0;" edge="1" parent="1" source="ZVySOKYS1OYlLSNdd-Se-18" target="ZVySOKYS1OYlLSNdd-Se-24">
          <mxGeometry relative="1" as="geometry">
            <Array as="points">
              <mxPoint x="220" y="570" />
              <mxPoint x="299" y="570" />
            </Array>
          </mxGeometry>
        </mxCell>
        <mxCell id="ZVySOKYS1OYlLSNdd-Se-29" style="edgeStyle=orthogonalEdgeStyle;rounded=0;orthogonalLoop=1;jettySize=auto;html=1;entryX=0.5;entryY=0;entryDx=0;entryDy=0;strokeColor=#FF3399;" edge="1" parent="1" source="ZVySOKYS1OYlLSNdd-Se-18" target="ZVySOKYS1OYlLSNdd-Se-28">
          <mxGeometry relative="1" as="geometry">
            <Array as="points">
              <mxPoint x="220" y="620" />
              <mxPoint x="120" y="620" />
            </Array>
          </mxGeometry>
        </mxCell>
        <mxCell id="ZVySOKYS1OYlLSNdd-Se-18" value="Flatten and FCN" style="rounded=1;whiteSpace=wrap;html=1;" vertex="1" parent="1">
          <mxGeometry x="160" y="640" width="120" height="30" as="geometry" />
        </mxCell>
        <mxCell id="ZVySOKYS1OYlLSNdd-Se-27" style="edgeStyle=orthogonalEdgeStyle;rounded=0;orthogonalLoop=1;jettySize=auto;html=1;entryX=0.5;entryY=1;entryDx=0;entryDy=0;" edge="1" parent="1" source="ZVySOKYS1OYlLSNdd-Se-24" target="9zeXcT7h1Ww5CdjPzbvc-69">
          <mxGeometry relative="1" as="geometry">
            <Array as="points">
              <mxPoint x="299" y="520" />
              <mxPoint x="354" y="520" />
            </Array>
          </mxGeometry>
        </mxCell>
        <mxCell id="ZVySOKYS1OYlLSNdd-Se-24" value="Sigmoid" style="rounded=1;whiteSpace=wrap;html=1;" vertex="1" parent="1">
          <mxGeometry x="259" y="530" width="80" height="20" as="geometry" />
        </mxCell>
        <mxCell id="ZVySOKYS1OYlLSNdd-Se-28" value="BCEWithLogitLoss" style="rounded=1;whiteSpace=wrap;html=1;fillColor=#f8cecc;strokeColor=#b85450;" vertex="1" parent="1">
          <mxGeometry x="60" y="720" width="120" height="20" as="geometry" />
        </mxCell>
        <mxCell id="ZVySOKYS1OYlLSNdd-Se-31" value="BCEWithLogitLoss" style="rounded=1;whiteSpace=wrap;html=1;fillColor=#f8cecc;strokeColor=#b85450;" vertex="1" parent="1">
          <mxGeometry x="369" y="130" width="120" height="20" as="geometry" />
        </mxCell>
        <mxCell id="ZVySOKYS1OYlLSNdd-Se-34" style="edgeStyle=orthogonalEdgeStyle;shape=connector;rounded=0;orthogonalLoop=1;jettySize=auto;html=1;entryX=0.25;entryY=1;entryDx=0;entryDy=0;labelBackgroundColor=default;strokeColor=#FF3399;fontFamily=Helvetica;fontSize=11;fontColor=default;endArrow=classic;" edge="1" parent="1" source="9zeXcT7h1Ww5CdjPzbvc-83" target="ZVySOKYS1OYlLSNdd-Se-31">
          <mxGeometry relative="1" as="geometry">
            <Array as="points">
              <mxPoint x="290" y="280" />
              <mxPoint x="360" y="280" />
              <mxPoint x="360" y="180" />
              <mxPoint x="399" y="180" />
            </Array>
          </mxGeometry>
        </mxCell>
        <mxCell id="ZVySOKYS1OYlLSNdd-Se-35" style="edgeStyle=orthogonalEdgeStyle;shape=connector;rounded=0;orthogonalLoop=1;jettySize=auto;html=1;entryX=0.5;entryY=1;entryDx=0;entryDy=0;labelBackgroundColor=default;strokeColor=#FF3399;fontFamily=Helvetica;fontSize=11;fontColor=default;endArrow=classic;exitX=0.5;exitY=0;exitDx=0;exitDy=0;" edge="1" parent="1" source="9zeXcT7h1Ww5CdjPzbvc-84" target="ZVySOKYS1OYlLSNdd-Se-31">
          <mxGeometry relative="1" as="geometry">
            <mxPoint x="430" y="280" as="sourcePoint" />
            <Array as="points">
              <mxPoint x="430" y="280" />
              <mxPoint x="380" y="280" />
              <mxPoint x="380" y="200" />
              <mxPoint x="429" y="200" />
            </Array>
          </mxGeometry>
        </mxCell>
        <mxCell id="ZVySOKYS1OYlLSNdd-Se-37" style="edgeStyle=orthogonalEdgeStyle;shape=connector;rounded=0;orthogonalLoop=1;jettySize=auto;html=1;entryX=0.75;entryY=1;entryDx=0;entryDy=0;labelBackgroundColor=default;strokeColor=#FF3399;fontFamily=Helvetica;fontSize=11;fontColor=default;endArrow=classic;" edge="1" parent="1" source="9zeXcT7h1Ww5CdjPzbvc-85" target="ZVySOKYS1OYlLSNdd-Se-31">
          <mxGeometry relative="1" as="geometry">
            <Array as="points">
              <mxPoint x="570" y="270" />
              <mxPoint x="490" y="270" />
              <mxPoint x="490" y="180" />
              <mxPoint x="459" y="180" />
            </Array>
          </mxGeometry>
        </mxCell>
        <mxCell id="ZVySOKYS1OYlLSNdd-Se-38" value="KLDiv" style="rounded=1;whiteSpace=wrap;html=1;fillColor=#f8cecc;strokeColor=#b85450;" vertex="1" parent="1">
          <mxGeometry x="565" y="584" width="80" height="20" as="geometry" />
        </mxCell>
        <mxCell id="ZVySOKYS1OYlLSNdd-Se-43" value="Tempo (N, 1, 3)" style="rounded=0;whiteSpace=wrap;html=1;fillColor=#e1d5e7;strokeColor=#9673a6;fontSize=9;" vertex="1" parent="1">
          <mxGeometry x="490" y="840" width="30" height="60" as="geometry" />
        </mxCell>
        <mxCell id="ZVySOKYS1OYlLSNdd-Se-46" style="edgeStyle=orthogonalEdgeStyle;shape=connector;rounded=0;orthogonalLoop=1;jettySize=auto;html=1;entryX=0.5;entryY=1;entryDx=0;entryDy=0;labelBackgroundColor=default;strokeColor=default;fontFamily=Helvetica;fontSize=11;fontColor=default;endArrow=classic;" edge="1" parent="1" source="ZVySOKYS1OYlLSNdd-Se-61" target="ZVySOKYS1OYlLSNdd-Se-43">
          <mxGeometry relative="1" as="geometry">
            <Array as="points" />
          </mxGeometry>
        </mxCell>
        <mxCell id="ZVySOKYS1OYlLSNdd-Se-50" value="" style="group" vertex="1" connectable="0" parent="1">
          <mxGeometry x="705" y="980" width="70" height="80" as="geometry" />
        </mxCell>
        <mxCell id="ZVySOKYS1OYlLSNdd-Se-42" value="Tempo (N)" style="rounded=0;whiteSpace=wrap;html=1;fillColor=#e1d5e7;strokeColor=#9673a6;" vertex="1" parent="ZVySOKYS1OYlLSNdd-Se-50">
          <mxGeometry x="5" y="60" width="60" height="20" as="geometry" />
        </mxCell>
        <mxCell id="ZVySOKYS1OYlLSNdd-Se-44" value="repeat" style="rounded=1;whiteSpace=wrap;html=1;" vertex="1" parent="ZVySOKYS1OYlLSNdd-Se-50">
          <mxGeometry width="70" height="20" as="geometry" />
        </mxCell>
        <mxCell id="ZVySOKYS1OYlLSNdd-Se-47" style="edgeStyle=orthogonalEdgeStyle;shape=connector;rounded=0;orthogonalLoop=1;jettySize=auto;html=1;labelBackgroundColor=default;strokeColor=default;fontFamily=Helvetica;fontSize=11;fontColor=default;endArrow=classic;" edge="1" parent="ZVySOKYS1OYlLSNdd-Se-50" source="ZVySOKYS1OYlLSNdd-Se-42" target="ZVySOKYS1OYlLSNdd-Se-44">
          <mxGeometry relative="1" as="geometry" />
        </mxCell>
        <mxCell id="ZVySOKYS1OYlLSNdd-Se-52" value="Tempo" style="rounded=0;whiteSpace=wrap;html=1;fillColor=#e1d5e7;strokeColor=#9673a6;" vertex="1" parent="1">
          <mxGeometry x="300" y="480" width="39" height="30" as="geometry" />
        </mxCell>
        <mxCell id="ZVySOKYS1OYlLSNdd-Se-60" value="(N, 33, 3)" style="text;html=1;strokeColor=none;fillColor=none;align=center;verticalAlign=middle;whiteSpace=wrap;rounded=0;fontSize=11;fontFamily=Helvetica;fontColor=default;" vertex="1" parent="1">
          <mxGeometry x="425" y="810" width="60" height="30" as="geometry" />
        </mxCell>
        <mxCell id="ZVySOKYS1OYlLSNdd-Se-61" value="Dropout" style="rounded=1;whiteSpace=wrap;html=1;" vertex="1" parent="1">
          <mxGeometry x="620" y="940" width="70" height="20" as="geometry" />
        </mxCell>
        <mxCell id="ZVySOKYS1OYlLSNdd-Se-63" style="edgeStyle=orthogonalEdgeStyle;shape=connector;rounded=0;orthogonalLoop=1;jettySize=auto;html=1;entryX=1;entryY=0.5;entryDx=0;entryDy=0;labelBackgroundColor=default;strokeColor=default;fontFamily=Helvetica;fontSize=11;fontColor=default;endArrow=classic;" edge="1" parent="1" source="ZVySOKYS1OYlLSNdd-Se-44" target="ZVySOKYS1OYlLSNdd-Se-61">
          <mxGeometry relative="1" as="geometry">
            <Array as="points">
              <mxPoint x="740" y="950" />
            </Array>
          </mxGeometry>
        </mxCell>
        <mxCell id="ZVySOKYS1OYlLSNdd-Se-64" value="(N, 33, d_model)" style="text;html=1;strokeColor=none;fillColor=none;align=center;verticalAlign=middle;whiteSpace=wrap;rounded=0;fontSize=11;fontFamily=Helvetica;fontColor=default;" vertex="1" parent="1">
          <mxGeometry x="410" y="760" width="120" height="30" as="geometry" />
        </mxCell>
        <mxCell id="ZVySOKYS1OYlLSNdd-Se-65" value="(N, 33, d_model)" style="text;html=1;strokeColor=none;fillColor=none;align=center;verticalAlign=middle;whiteSpace=wrap;rounded=0;fontSize=11;fontFamily=Helvetica;fontColor=default;" vertex="1" parent="1">
          <mxGeometry x="410" y="690" width="120" height="30" as="geometry" />
        </mxCell>
        <mxCell id="ZVySOKYS1OYlLSNdd-Se-66" value="(N, 12)" style="text;html=1;strokeColor=none;fillColor=none;align=center;verticalAlign=middle;whiteSpace=wrap;rounded=0;fontSize=11;fontFamily=Helvetica;fontColor=default;" vertex="1" parent="1">
          <mxGeometry x="650" y="604" width="60" height="30" as="geometry" />
        </mxCell>
      </root>
    </mxGraphModel>
  </diagram>
</mxfile>
